# xmcd
#
# Track frame offsets:
#	150
#	42053
#	65283
#	82024
#	103353
#	124890
#	147622
#	173410
#	206406
#	236238
#
# Disc length: 3472 seconds
#
# Revision: 1
# Processed by: cddbd v1.5.1PL0 Copyright (c) Steve Scherf et al.
# Submitted via: EasyCDDAExtractor 8.0.2.1
#
DISCID=8f0d8e0a
DTITLE=Luther Vandross - The Best of Luther Vandross...The Best Of Love [Disc2
DTITLE=]
DYEAR=1989
DGENRE=R&B
TTITLE0=Until You Come Back To Me
TTITLE1=Stop To Love
TTITLE2=So Amazing
TTITLE3=There Nothing Better Than Love (Featuring Gregory Hines)
TTITLE4=Give Me The Reason
TTITLE5=Any Love
TTITLE6=I Really Didn't Mean It
TTITLE7=Love Won't Let Me Wait
TTITLE8=Treat You Right
TTITLE9=Here And Now
EXTD=YEAR: 1989 ID3G: 14\n
EXTT0=
EXTT1=
EXTT2=
EXTT3=
EXTT4=
EXTT5=
EXTT6=
EXTT7=
EXTT8=
EXTT9=
PLAYORDER=
